<svg xmlns="http://www.w3.org/2000/svg" viewBox="-2 -2 187 71" width="187" height="71" id="logo-en-big">
<style>.gst0{fill:#d53127}.gst1{fill:#008dd2}.gst2{fill:#333}</style>
<g id="gСлой_2"><path class="gst0" d="M27.7 43.9h-1.4c-1.5 0-2.8-1.2-2.8-2.8V22.8c0-1.5 1.2-2.8 2.8-2.8h1.4c1.5 0 2.8 1.2 2.8 2.8v18.3c0 1.6-1.3 2.8-2.8 2.8zM16.8 37h-1.4c-1.5 0-2.8-1.2-2.8-2.8V5c0-1.5 1.2-2.8 2.8-2.8h1.4c1.5 0 2.8 1.2 2.8 2.8v29.2c-.1 1.5-1.3 2.8-2.8 2.8zM37.6 48.9h-1.4c-1.5 0-2.8-1.2-2.8-2.8V34.8c0-1.5 1.2-2.8 2.8-2.8h1.4c1.5 0 2.8 1.2 2.8 2.8v11.4c0 1.4-1.3 2.7-2.8 2.7z"/><path class="gst1" d="M46.5 6.6c-.8-1.2-1.9-2.4-3.1-3.2-2-1.2-4.9-1.7-7.4 0-2.2 1.5-2.5 3.7-1.9 6.1.9 3.9 2.8 7.4 4.5 10.9 3.2 6.7 7.3 12.9 9.6 20.1 2.8 9-1.8 13.3-8.8 13.3-3 0-6.6-.7-7.9-1-4.5-.8-12.3-4.9-18-10.3-1-1-3.6-4.2-3.9-4.6-1.5-1.7-3.2-3.8-6-2-2.5 1.7-.7 5.6 0 6.9 1.1 1.9 2.7 3.9 4.9 6.1 8 7.8 16.9 12.8 25.9 13.8 14 1.6 23.7-5 23.8-18.4.2-13.7-4.6-26.1-11.7-37.7z"/></g><g id="gСлой_3"><path class="gst2" d="M77 49.3v-31c0-.7.2-1.3.6-1.7.4-.5.9-.7 1.4-.7h8.7c.6 0 1.1.2 1.6.7.5.5.8 1 1 1.7l6.3 21.4 6.3-21.4c.2-.7.5-1.2 1-1.7s1-.7 1.6-.7h8.7c.6 0 1 .2 1.4.7.4.5.6 1 .6 1.7v31.1c0 .7-.2 1.3-.6 1.7s-.9.7-1.4.7h-3.9c-.6 0-1-.2-1.4-.7-.4-.5-.6-1-.6-1.7V24.9l-7.5 24.6c-.2.6-.5 1.1-1 1.6-.5.4-1 .7-1.6.7h-3c-.6 0-1.1-.2-1.6-.7-.5-.4-.8-1-1.1-1.6L85 24.9v24.5c0 .7-.2 1.3-.6 1.7s-.9.7-1.4.7h-3.9c-.6 0-1.1-.2-1.5-.7-.4-.5-.6-1.1-.6-1.8zM123.8 49.3V18.2c0-.7.2-1.2.5-1.7s.8-.7 1.2-.7h3.4c.5 0 .9.2 1.2.7s.5 1 .5 1.7v12h3.9c1.1 0 2-.4 2.8-1.2.8-.8 1.6-2.1 2.3-3.9l2.8-6.9c.6-1.6 1.5-2.4 2.6-2.4h4.2c.5 0 .8.2.8.7v.3c0 .4-.1.8-.3 1.4l-4 9.8c-.6 1.4-1.2 2.6-1.9 3.6-.7.9-1.6 1.6-2.8 2 .8.2 1.6.9 2.5 2.1.8 1.2 1.6 2.4 2.2 3.8l4.6 10c.2.5.3.9.3 1.3 0 .2 0 .3-.1.4-.1.5-.4.7-.9.7h-4.2c-.5 0-1-.2-1.5-.7-.5-.5-1-1-1.3-1.7l-3.2-7c-.8-1.7-1.5-3-2.3-3.8-.8-.9-1.7-1.3-2.8-1.3h-3.9v12.2c0 .7-.2 1.2-.5 1.6s-.7.7-1.2.7h-3.4c-.5 0-.9-.2-1.2-.7-.1-.7-.3-1.2-.3-1.9zM155 49.4V18.2c0-.7.2-1.2.5-1.7.4-.5.8-.7 1.4-.7h3.6c.5 0 .9.2 1.3.7.4.5.5 1 .5 1.7v11.3h13.5V18.2c0-.7.2-1.2.5-1.7.4-.5.8-.7 1.3-.7h3.6c.5 0 1 .2 1.3.7.4.5.5 1 .5 1.7v31.2c0 .7-.2 1.2-.6 1.7s-.8.7-1.3.7h-3.6c-.5 0-.9-.2-1.3-.7s-.5-1-.5-1.6V36.6h-13.5v12.9c0 .7-.2 1.2-.5 1.6-.4.4-.8.7-1.3.7h-3.6c-.5 0-1-.2-1.3-.7s-.5-1.1-.5-1.7z"/></g></svg>